<svg width="13" height="9" viewBox="0 0 13 9" fill="none" xmlns="http://www.w3.org/2000/svg">
<path fill-rule="evenodd" clip-rule="evenodd" d="M0.329986 1.32999C0.540924 1.11931 0.826861 1.00098 1.12499 1.00098C1.42311 1.00098 1.70905 1.11931 1.91999 1.32999L5.99999 5.40999L10.08 1.32999C10.183 1.21946 10.3072 1.1308 10.4452 1.06931C10.5832 1.00783 10.7321 0.974764 10.8832 0.972099C11.0343 0.969434 11.1843 0.99722 11.3244 1.0538C11.4645 1.11038 11.5917 1.1946 11.6985 1.30143C11.8054 1.40826 11.8896 1.53551 11.9462 1.67559C12.0028 1.81567 12.0305 1.96572 12.0279 2.11677C12.0252 2.26782 11.9921 2.41679 11.9307 2.55479C11.8692 2.69279 11.7805 2.81699 11.67 2.91999L6.79499 7.79499C6.58405 8.00566 6.29811 8.124 5.99999 8.124C5.70186 8.124 5.41592 8.00566 5.20499 7.79499L0.329986 2.91999C0.119311 2.70905 0.000976562 2.42311 0.000976562 2.12499C0.000976562 1.82686 0.119311 1.54092 0.329986 1.32999Z" fill="#006184"/>
</svg>
