<svg width="16" height="12" viewBox="0 0 16 12" fill="none" xmlns="http://www.w3.org/2000/svg">
<path d="M1.35733 6.21467C1.31074 6.07649 1.31074 5.92684 1.35733 5.78867C2.282 3.00667 4.90666 1 8 1C11.092 1 13.7153 3.00467 14.642 5.78533C14.6887 5.92333 14.6887 6.07267 14.642 6.21133C13.718 8.99333 11.0933 11 8 11C4.908 11 2.284 8.99533 1.35733 6.21467Z" fill="#F2F6F7" stroke="#D66853" stroke-width="1.5" stroke-linecap="round" stroke-linejoin="round"/>
<path d="M10 6C10 6.53043 9.78929 7.03914 9.41421 7.41421C9.03914 7.78929 8.53043 8 8 8C7.46957 8 6.96086 7.78929 6.58579 7.41421C6.21071 7.03914 6 6.53043 6 6C6 5.46957 6.21071 4.96086 6.58579 4.58579C6.96086 4.21071 7.46957 4 8 4C8.53043 4 9.03914 4.21071 9.41421 4.58579C9.78929 4.96086 10 5.46957 10 6Z" fill="#F2F6F7" stroke="#D66853" stroke-width="1.5" stroke-linecap="round" stroke-linejoin="round"/>
</svg>
