<svg width="16" height="16" viewBox="0 0 16 16" fill="none" xmlns="http://www.w3.org/2000/svg">
<path d="M10.5499 7.4249H8.5499V5.4499C8.5499 5.1499 8.2999 4.8999 7.9749 4.8999C7.6749 4.8999 7.4249 5.1499 7.4249 5.4749V7.4499H5.4499C5.1499 7.4499 4.8999 7.6999 4.8999 8.0249C4.8999 8.3249 5.1499 8.5749 5.4749 8.5749H7.4499V10.5499C7.4499 10.8499 7.6999 11.0999 8.0249 11.0999C8.3249 11.0999 8.5749 10.8499 8.5749 10.5249V8.5499H10.5499C10.8499 8.5499 11.0999 8.2999 11.0999 7.9749C11.0999 7.6749 10.8499 7.4249 10.5499 7.4249Z" fill="#F2F6F7"/>
<path d="M7.99995 0.449951C3.82495 0.449951 0.449951 3.82495 0.449951 7.99995C0.449951 12.175 3.84995 15.575 8.02495 15.575C12.2 15.575 15.6 12.175 15.6 7.99995C15.575 3.82495 12.175 0.449951 7.99995 0.449951ZM7.99995 14.45C4.44995 14.45 1.57495 11.55 1.57495 7.99995C1.57495 4.44995 4.44995 1.57495 7.99995 1.57495C11.55 1.57495 14.45 4.44995 14.45 7.99995C14.45 11.55 11.55 14.45 7.99995 14.45Z" fill="#F2F6F7"/>
</svg>
