<svg width="20" height="20" viewBox="0 0 20 20" fill="none" xmlns="http://www.w3.org/2000/svg">
<path d="M15.982 16.7249C15.2831 15.7999 14.3791 15.0498 13.3411 14.5335C12.303 14.0173 11.1593 13.7491 9.99999 13.7499C8.84066 13.7491 7.69695 14.0173 6.65891 14.5335C5.62087 15.0498 4.71684 15.7999 4.01799 16.7249M15.982 16.7249C17.3455 15.5121 18.3081 13.9135 18.7422 12.141C19.1762 10.3686 19.0613 8.50604 18.4125 6.80043C17.7637 5.09482 16.6117 3.62673 15.1094 2.59085C13.6071 1.55497 11.8253 1.00024 10.0005 1.00024C8.17565 1.00024 6.39392 1.55497 4.89159 2.59085C3.38926 3.62673 2.23732 5.09482 1.58852 6.80043C0.93973 8.50604 0.824741 10.3686 1.25881 12.141C1.69288 13.9135 2.65449 15.5121 4.01799 16.7249M15.982 16.7249C14.3358 18.1928 12.2055 19.0027 9.99999 18.9999C7.79409 19.003 5.66442 18.193 4.01799 16.7249M13 7.74995C13 8.5456 12.6839 9.30866 12.1213 9.87127C11.5587 10.4339 10.7956 10.7499 9.99999 10.7499C9.20434 10.7499 8.44128 10.4339 7.87867 9.87127C7.31606 9.30866 6.99999 8.5456 6.99999 7.74995C6.99999 6.9543 7.31606 6.19124 7.87867 5.62863C8.44128 5.06602 9.20434 4.74995 9.99999 4.74995C10.7956 4.74995 11.5587 5.06602 12.1213 5.62863C12.6839 6.19124 13 6.9543 13 7.74995Z" stroke="#006184" stroke-width="1.5" stroke-linecap="round" stroke-linejoin="round"/>
</svg>
