<svg width="18" height="16" viewBox="0 0 18 16" fill="none" xmlns="http://www.w3.org/2000/svg">
<path fill-rule="evenodd" clip-rule="evenodd" d="M0 1.625C0 1.32663 0.118526 1.04048 0.329505 0.829505C0.540483 0.618526 0.826631 0.5 1.125 0.5H16.875C17.1734 0.5 17.4595 0.618526 17.6705 0.829505C17.8815 1.04048 18 1.32663 18 1.625C18 1.92337 17.8815 2.20952 17.6705 2.4205C17.4595 2.63147 17.1734 2.75 16.875 2.75H1.125C0.826631 2.75 0.540483 2.63147 0.329505 2.4205C0.118526 2.20952 0 1.92337 0 1.625ZM0 8C0 7.70163 0.118526 7.41548 0.329505 7.2045C0.540483 6.99353 0.826631 6.875 1.125 6.875H16.875C17.1734 6.875 17.4595 6.99353 17.6705 7.2045C17.8815 7.41548 18 7.70163 18 8C18 8.29837 17.8815 8.58452 17.6705 8.79549C17.4595 9.00647 17.1734 9.125 16.875 9.125H1.125C0.826631 9.125 0.540483 9.00647 0.329505 8.79549C0.118526 8.58452 0 8.29837 0 8ZM9 14.375C9 14.0766 9.11853 13.7905 9.32951 13.5795C9.54048 13.3685 9.82663 13.25 10.125 13.25H16.875C17.1734 13.25 17.4595 13.3685 17.6705 13.5795C17.8815 13.7905 18 14.0766 18 14.375C18 14.6734 17.8815 14.9595 17.6705 15.1705C17.4595 15.3815 17.1734 15.5 16.875 15.5H10.125C9.82663 15.5 9.54048 15.3815 9.32951 15.1705C9.11853 14.9595 9 14.6734 9 14.375Z" fill="#006184"/>
</svg>
