<svg width="18" height="18" viewBox="0 0 18 18" fill="none" xmlns="http://www.w3.org/2000/svg">
<path d="M11.5 14.94C12.2109 15.1462 12.9474 15.2505 13.6875 15.25C14.878 15.2528 16.0531 14.9814 17.1217 14.4567C17.1239 14.4089 17.125 14.3608 17.125 14.3125C17.1251 13.5774 16.8895 12.8617 16.4528 12.2703C16.0162 11.6789 15.4015 11.2431 14.6989 11.0269C13.9964 10.8106 13.243 10.8252 12.5493 11.0686C11.8557 11.312 11.2584 11.7713 10.845 12.3792M11.5 14.94V14.9375C11.5 14.01 11.2625 13.1375 10.845 12.3792M11.5 14.94V15.0283C9.89655 15.995 8.05896 16.5039 6.18668 16.5C4.24418 16.5 2.42668 15.9625 0.87501 15.0283L0.874177 14.9375C0.873537 13.7579 1.26552 12.6116 1.98833 11.6794C2.71114 10.7472 3.72365 10.082 4.86625 9.78883C6.00885 9.49564 7.21653 9.59107 8.2989 10.0601C9.38126 10.5291 10.2776 11.345 10.845 12.3792M9.00001 4.3125C9.00001 5.05842 8.70369 5.77379 8.17625 6.30124C7.6488 6.82868 6.93343 7.125 6.18751 7.125C5.44159 7.125 4.72622 6.82868 4.19877 6.30124C3.67133 5.77379 3.37501 5.05842 3.37501 4.3125C3.37501 3.56658 3.67133 2.85121 4.19877 2.32376C4.72622 1.79632 5.44159 1.5 6.18751 1.5C6.93343 1.5 7.6488 1.79632 8.17625 2.32376C8.70369 2.85121 9.00001 3.56658 9.00001 4.3125ZM15.875 6.1875C15.875 6.76766 15.6445 7.32406 15.2343 7.7343C14.8241 8.14453 14.2677 8.375 13.6875 8.375C13.1073 8.375 12.5509 8.14453 12.1407 7.7343C11.7305 7.32406 11.5 6.76766 11.5 6.1875C11.5 5.60734 11.7305 5.05094 12.1407 4.6407C12.5509 4.23047 13.1073 4 13.6875 4C14.2677 4 14.8241 4.23047 15.2343 4.6407C15.6445 5.05094 15.875 5.60734 15.875 6.1875Z" stroke="#151C1F" stroke-width="1.5" stroke-linecap="round" stroke-linejoin="round"/>
</svg>
