<svg width="18" height="14" viewBox="0 0 18 14" fill="none" xmlns="http://www.w3.org/2000/svg">
<path d="M11.5 4.5H14.625M11.5 7H14.625M11.5 9.5H14.625M2.75 13.25H15.25C15.7473 13.25 16.2242 13.0525 16.5758 12.7008C16.9275 12.3492 17.125 11.8723 17.125 11.375V2.625C17.125 2.12772 16.9275 1.65081 16.5758 1.29917C16.2242 0.947544 15.7473 0.75 15.25 0.75H2.75C2.25272 0.75 1.77581 0.947544 1.42417 1.29917C1.07254 1.65081 0.875 2.12772 0.875 2.625V11.375C0.875 11.8723 1.07254 12.3492 1.42417 12.7008C1.77581 13.0525 2.25272 13.25 2.75 13.25ZM7.75 4.8125C7.75 5.01769 7.70958 5.22087 7.63106 5.41044C7.55254 5.60001 7.43745 5.77226 7.29235 5.91735C7.14726 6.06245 6.97501 6.17754 6.78544 6.25606C6.59587 6.33458 6.39269 6.375 6.1875 6.375C5.98231 6.375 5.77913 6.33458 5.58956 6.25606C5.39999 6.17754 5.22774 6.06245 5.08265 5.91735C4.93755 5.77226 4.82246 5.60001 4.74394 5.41044C4.66542 5.22087 4.625 5.01769 4.625 4.8125C4.625 4.3981 4.78962 4.00067 5.08265 3.70765C5.37567 3.41462 5.7731 3.25 6.1875 3.25C6.6019 3.25 6.99933 3.41462 7.29235 3.70765C7.58538 4.00067 7.75 4.3981 7.75 4.8125ZM8.82833 10.0925C8.01551 10.5263 7.10798 10.7521 6.18667 10.75C5.26591 10.7519 4.35899 10.526 3.54667 10.0925C3.74524 9.55187 4.10495 9.08521 4.57722 8.75556C5.04949 8.4259 5.61156 8.24914 6.1875 8.24914C6.76344 8.24914 7.32551 8.4259 7.79778 8.75556C8.27005 9.08521 8.62976 9.55187 8.82833 10.0925Z" stroke="#151C1F" stroke-width="1.5" stroke-linecap="round" stroke-linejoin="round"/>
</svg>
