<svg width="20" height="18" viewBox="0 0 20 18" fill="none" xmlns="http://www.w3.org/2000/svg">
    <path d="M6.80022 8.0836C8.39751 8.0836 9.69721 6.27046 9.69721 4.0418C9.69721 1.81314 8.39751 0 6.80022 0C5.20293 0 3.90322 1.81314 3.90322 4.0418C3.90322 6.27046 5.20261 8.0836 6.80022 8.0836ZM6.80022 0.983087C7.85783 0.983087 8.75151 2.38399 8.75151 4.0418C8.75151 5.69961 7.85814 7.10051 6.80022 7.10051C5.74229 7.10051 4.84892 5.69961 4.84892 4.0418C4.84892 2.38399 5.74229 0.983087 6.80022 0.983087Z" fill="#151C1F"/>
    <path d="M15.3929 12.0146C15.3333 11.9307 15.2762 11.8514 15.246 11.783C14.5985 10.3418 12.8221 8.64232 9.94593 8.60005L9.83529 8.59939C7.00291 8.59939 5.24044 10.209 4.53526 11.7158C4.51099 11.7669 4.4574 11.8341 4.40066 11.9045C4.33383 11.9878 4.26731 12.0723 4.21025 12.1644C3.61446 13.1281 3.31089 14.2125 3.35566 15.2179C3.40294 16.2861 3.83229 17.1437 4.56458 17.6327C4.85995 17.8306 5.17928 17.9299 5.51375 17.9299C6.20442 17.9299 6.83647 17.5258 7.56876 17.0569C8.03404 16.7597 8.51509 16.4513 9.04972 16.2209C9.10993 16.2003 9.35487 16.1692 9.75616 16.1692C10.2337 16.1692 10.5758 16.2131 10.6492 16.2399C11.1703 16.4788 11.6283 16.7931 12.0719 17.0959C12.7509 17.5606 13.3921 18 14.0878 18C14.3863 18 14.6763 17.9187 14.949 17.7568C16.4552 16.8672 16.7421 14.4268 15.5889 12.3161C15.5309 12.2106 15.4616 12.112 15.3929 12.0146ZM14.4815 16.9025C14.3485 16.9805 14.2237 17.0172 14.0875 17.0172C13.6751 17.0172 13.1733 16.6735 12.5914 16.2753C12.1381 15.965 11.6249 15.6134 11.0313 15.3407C10.7394 15.2064 10.1064 15.1861 9.75585 15.1861C9.24233 15.1861 8.8858 15.228 8.69603 15.309C8.08353 15.5737 7.54669 15.9165 7.07289 16.2196C6.46323 16.6089 5.93679 16.9468 5.51375 16.9468C5.35928 16.9468 5.22026 16.9019 5.07589 16.8052C4.60839 16.4929 4.3332 15.9126 4.3001 15.172C4.26448 14.3691 4.51509 13.4893 5.00559 12.6956C5.04121 12.6376 5.0844 12.5861 5.12632 12.5344C5.2127 12.4269 5.31105 12.3046 5.38576 12.1451C5.96579 10.906 7.43919 9.58248 9.83529 9.58248L9.93238 9.58313C12.371 9.61885 13.8574 11.0148 14.3888 12.1988C14.4598 12.3558 14.5518 12.4855 14.6325 12.5996C14.6785 12.6648 14.7274 12.7307 14.7668 12.8024C15.6621 14.4409 15.5344 16.2803 14.4815 16.9025Z" fill="#151C1F"/>
    <path d="M12.9596 8.0836C14.5572 8.0836 15.8569 6.27046 15.8569 4.0418C15.8569 1.81314 14.5575 0 12.9596 0C11.3626 0 10.0629 1.81314 10.0629 4.0418C10.0629 6.27046 11.3623 8.0836 12.9596 8.0836ZM12.9596 0.983087C14.0172 0.983087 14.9112 2.38399 14.9112 4.0418C14.9112 5.69961 14.0178 7.10051 12.9596 7.10051C11.902 7.10051 11.0086 5.69961 11.0086 4.0418C11.0086 2.38399 11.902 0.983087 12.9596 0.983087Z" fill="#151C1F"/>
    <path d="M17.7177 6.00797C16.4375 6.00797 15.4351 7.38856 15.4351 9.15058C15.4351 10.9119 16.4379 12.2925 17.7177 12.2925C18.9976 12.2925 20 10.9119 20 9.15058C20 7.38856 18.9979 6.00797 17.7177 6.00797ZM17.7177 11.3094C16.993 11.3094 16.3808 10.3204 16.3808 9.15058C16.3808 7.98005 16.993 6.99106 17.7177 6.99106C18.4424 6.99106 19.0543 7.98005 19.0543 9.15058C19.0543 10.3204 18.4421 11.3094 17.7177 11.3094Z" fill="#151C1F"/>
    <path d="M4.56522 9.15058C4.56522 7.38856 3.56246 6.00797 2.28261 6.00797C1.00276 6.00797 0 7.38856 0 9.15058C0 10.9119 1.00276 12.2925 2.28261 12.2925C3.56246 12.2925 4.56522 10.9119 4.56522 9.15058ZM2.28261 11.3094C1.55852 11.3094 0.945573 10.3204 0.945573 9.15058C0.945573 7.98005 1.55792 6.99106 2.28261 6.99106C3.00731 6.99106 3.61965 7.98005 3.61965 9.15058C3.61965 10.3204 3.00731 11.3094 2.28261 11.3094Z" fill="#151C1F"/>
</svg>
