<svg width="18" height="16" viewBox="0 0 18 16" fill="none" xmlns="http://www.w3.org/2000/svg">
<path d="M0.875 9.25H4.09167C4.43983 9.25009 4.7811 9.34712 5.07723 9.53021C5.37336 9.71331 5.61266 9.97524 5.76833 10.2867L5.98167 10.7133C6.1374 11.0249 6.37683 11.2869 6.67313 11.47C6.96942 11.6531 7.31086 11.7501 7.65917 11.75H10.3408C10.6891 11.7501 11.0306 11.6531 11.3269 11.47C11.6232 11.2869 11.8626 11.0249 12.0183 10.7133L12.2317 10.2867C12.3874 9.97511 12.6268 9.7131 12.9231 9.52999C13.2194 9.34689 13.5609 9.24993 13.9092 9.25H17.125M0.875 9.53167V13C0.875 13.4973 1.07254 13.9742 1.42417 14.3258C1.77581 14.6775 2.25272 14.875 2.75 14.875H15.25C15.7473 14.875 16.2242 14.6775 16.5758 14.3258C16.9275 13.9742 17.125 13.4973 17.125 13V9.53167C17.125 9.34389 17.0972 9.16028 17.0417 8.98083L15.0333 2.44833C14.9154 2.0652 14.6778 1.72996 14.3553 1.49179C14.0328 1.25362 13.6425 1.12507 13.2417 1.125H4.75917C4.35829 1.12507 3.96799 1.25362 3.64554 1.49179C3.32308 1.72996 3.08545 2.0652 2.9675 2.44833L0.958333 8.98083C0.903877 9.15941 0.875803 9.34498 0.875 9.53167Z" stroke="#151C1F" stroke-width="1.5" stroke-linecap="round" stroke-linejoin="round"/>
</svg>
