<svg width="18" height="16" viewBox="0 0 18 16" fill="none" xmlns="http://www.w3.org/2000/svg">
<path d="M5.5625 9.875L6.57417 11.4933C6.74266 11.7631 6.97701 11.9855 7.25516 12.1398C7.5333 12.294 7.84612 12.375 8.16417 12.375H9.83583C10.4825 12.375 11.0833 12.0417 11.4258 11.4933L12.4375 9.875M1.00833 5.5H4.87167C5.18033 5.50002 5.48422 5.57625 5.75636 5.72191C6.02849 5.86757 6.26046 6.07817 6.43167 6.335L6.56833 6.54C6.73954 6.79683 6.97151 7.00743 7.24364 7.15309C7.51578 7.29875 7.81967 7.37498 8.12833 7.375H9.87167C10.1803 7.37498 10.4842 7.29875 10.7564 7.15309C11.0285 7.00743 11.2605 6.79683 11.4317 6.54L11.5683 6.335C11.7395 6.07817 11.9715 5.86757 12.2436 5.72191C12.5158 5.57625 12.8197 5.50002 13.1283 5.5H16.9917M1.00833 5.5C0.921338 5.72086 0.876127 5.95596 0.875 6.19333V8C0.875 8.49728 1.07254 8.97419 1.42417 9.32582C1.77581 9.67746 2.25272 9.875 2.75 9.875H15.25C15.7473 9.875 16.2242 9.67746 16.5758 9.32582C16.9275 8.97419 17.125 8.49728 17.125 8V6.19333C17.125 5.95417 17.0792 5.71833 16.9917 5.5M1.00833 5.5C1.08538 5.30844 1.19288 5.1306 1.32667 4.97333L4.06417 1.78C4.24014 1.57463 4.45845 1.40976 4.70414 1.2967C4.94982 1.18364 5.21705 1.12507 5.4875 1.125H12.5125C13.06 1.125 13.58 1.36417 13.9367 1.78L16.6733 4.97333C16.8092 5.13167 16.9158 5.31 16.9917 5.5M2.75 14.875H15.25C15.7473 14.875 16.2242 14.6775 16.5758 14.3258C16.9275 13.9742 17.125 13.4973 17.125 13V10.8125C17.125 10.295 16.705 9.875 16.1875 9.875H1.8125C1.295 9.875 0.875 10.295 0.875 10.8125V13C0.875 13.4973 1.07254 13.9742 1.42417 14.3258C1.77581 14.6775 2.25272 14.875 2.75 14.875Z" stroke="#151C1F" stroke-width="1.5" stroke-linecap="round" stroke-linejoin="round"/>
</svg>
